<svg width="121" height="121" viewBox="0 0 121 121" fill="none" xmlns="http://www.w3.org/2000/svg">
<path d="M109.349 55.0567C109.559 56.877 109.664 58.7323 109.664 60.6227C109.664 60.7277 109.664 60.8327 109.664 60.9377L119.361 51.2411C118.731 47.3204 117.751 43.5398 116.42 39.8992L109.349 55.0567ZM94.2967 24.8117C95.6969 26.1419 97.0622 27.5421 98.2874 29.0474L99.4776 15.3601C96.5371 12.8047 93.3515 10.5293 89.921 8.56898L94.2617 24.8117H94.2967ZM79.9793 15.2551C81.7996 16.0602 83.5499 16.9704 85.2302 17.9855L81.6596 4.64832C78.054 3.24809 74.2734 2.19791 70.3527 1.5328L79.9793 15.2551ZM106.514 77.8455L119.046 71.9996C119.746 68.2889 120.166 64.5083 120.166 60.5877C120.166 60.4826 120.166 60.4126 120.166 60.3076L108.229 72.2446C107.774 74.1699 107.179 76.0252 106.514 77.8455ZM104.483 38.639C105.359 40.3893 106.129 42.1746 106.759 44.0299L112.605 31.4978C110.679 28.0672 108.474 24.8467 105.954 21.8712L104.483 38.639ZM89.4659 100.424C87.8906 101.579 86.2804 102.665 84.6001 103.61L97.9373 107.18C100.983 104.695 103.783 101.965 106.304 98.954L89.5009 100.424H89.4659ZM30.8661 20.786C32.4414 19.6308 34.0517 18.5456 35.7319 17.6005L22.3947 14.0299C19.3492 16.5153 16.5487 19.2458 14.0633 22.2563L30.8661 20.786ZM57.0505 109.946C55.0902 109.806 53.1649 109.596 51.2745 109.246L59.1859 120.553C59.5359 120.553 59.851 120.588 60.201 120.588C63.8416 120.588 67.3772 120.203 70.8428 119.572L57.0505 109.911V109.946ZM63.3166 11.2644C65.2769 11.4045 67.2022 11.6145 69.0925 11.9645L61.1812 0.622652C60.8311 0.622652 60.5161 0.587646 60.166 0.587646C56.5254 0.587646 52.9898 0.972711 49.5242 1.60282L63.3166 11.2644ZM74.1684 108.056C72.278 108.616 70.3527 109.036 68.3924 109.351L79.6993 117.262C83.4099 115.967 86.9805 114.322 90.341 112.361L74.1684 108.021V108.056ZM40.3877 105.955C38.5674 105.15 36.8171 104.24 35.1368 103.225L38.7074 116.562C42.313 117.962 46.0937 119.012 50.0143 119.678L40.3877 105.955ZM26.0703 96.3986C24.6701 95.0684 23.3049 93.6682 22.0797 92.1629L20.8895 105.85C23.83 108.406 27.0155 110.681 30.4461 112.641L26.1053 96.3986H26.0703ZM46.1637 13.1197C48.054 12.5596 49.9793 12.1396 51.9396 11.8245L40.6328 3.9132C36.9221 5.20842 33.3516 6.85369 29.991 8.81402L46.1637 13.1547V13.1197ZM97.8323 92.653L111.555 91.4628C113.55 88.1372 115.265 84.6017 116.595 80.891L101.403 87.9622C100.318 89.6075 99.1275 91.1477 97.8323 92.653ZM15.8836 82.5713C15.0085 80.821 14.2384 79.0357 13.6083 77.1804L7.76228 89.7125C9.6876 93.1431 11.893 96.3636 14.4134 99.3391L15.8836 82.5713ZM22.5347 28.5223L8.81246 29.7125C6.81713 33.0381 5.10184 36.5736 3.77162 40.2843L18.9641 33.2131C20.0493 31.5678 21.2395 30.0276 22.5347 28.5223ZM13.8183 43.3648L1.2862 49.2108C0.586086 52.9214 0.166016 56.702 0.166016 60.6227C0.166016 60.7277 0.166016 60.7977 0.166016 60.9027L12.103 48.9657C12.5581 47.0404 13.1532 45.1851 13.8183 43.3648ZM10.9828 66.1536C10.7728 64.3333 10.6678 62.478 10.6678 60.5877C10.6678 60.4826 10.6678 60.3776 10.6678 60.2726L0.97115 70.0042C1.60125 73.9249 2.58142 77.7055 3.91164 81.3461L10.9828 66.1886V66.1536Z" fill="white"/>
<path d="M34.1054 76.8841V44.2912H47.5727C47.8895 44.2912 48.297 44.3062 48.7949 44.3364C49.2929 44.3515 49.7531 44.3968 50.1756 44.4722C52.0618 44.7589 53.616 45.3851 54.8382 46.3509C56.0755 47.3166 56.9884 48.5388 57.5769 50.0176C58.1805 51.4812 58.4823 53.1109 58.4823 54.9065C58.4823 57.5622 57.8108 59.8483 56.4678 61.7646C55.1249 63.6659 53.0652 64.8428 50.2888 65.2955L47.9575 65.4992H39.5602V76.8841H34.1054ZM52.8238 76.8841L46.3957 63.6206L51.941 62.3984L59.0028 76.8841H52.8238ZM39.5602 60.4066H47.3463C47.6481 60.4066 47.9876 60.3915 48.3649 60.3613C48.7421 60.3311 49.0892 60.2708 49.406 60.1802C50.3114 59.9539 51.0206 59.554 51.5336 58.9806C52.0618 58.4072 52.4314 57.7584 52.6427 57.0341C52.869 56.3098 52.9822 55.6006 52.9822 54.9065C52.9822 54.2124 52.869 53.5032 52.6427 52.7789C52.4314 52.0395 52.0618 51.3832 51.5336 50.8098C51.0206 50.2364 50.3114 49.8365 49.406 49.6102C49.0892 49.5196 48.7421 49.4668 48.3649 49.4517C47.9876 49.4215 47.6481 49.4064 47.3463 49.4064H39.5602V60.4066Z" fill="white"/>
<path d="M63.9894 76.8841V44.2912H74.3784C74.65 44.2912 75.1857 44.2987 75.9854 44.3138C76.8003 44.3289 77.5849 44.3817 78.3394 44.4722C80.9197 44.8042 83.1001 45.7246 84.8806 47.2336C86.6762 48.7274 88.0343 50.6362 88.9547 52.96C89.8752 55.2837 90.3354 57.8263 90.3354 60.5877C90.3354 63.349 89.8752 65.8916 88.9547 68.2153C88.0343 70.5391 86.6762 72.4554 84.8806 73.9644C83.1001 75.4582 80.9197 76.3711 78.3394 76.7031C77.6 76.7936 76.8229 76.8464 76.0081 76.8615C75.1932 76.8766 74.65 76.8841 74.3784 76.8841H63.9894ZM69.5347 71.7462H74.3784C74.8311 71.7462 75.4045 71.7311 76.0986 71.701C76.8078 71.6708 77.434 71.6029 77.9772 71.4973C79.5163 71.2106 80.7688 70.524 81.7345 69.4376C82.7002 68.3511 83.4094 67.0308 83.8621 65.4766C84.3298 63.9224 84.5637 62.2928 84.5637 60.5877C84.5637 58.8222 84.3298 57.1624 83.8621 55.6082C83.3943 54.054 82.67 52.7487 81.6892 51.6925C80.7235 50.6362 79.4862 49.9648 77.9772 49.6781C77.434 49.5573 76.8078 49.4894 76.0986 49.4743C75.4045 49.4442 74.8311 49.4291 74.3784 49.4291H69.5347V71.7462Z" fill="white"/>
</svg>
